<svg xmlns="http://www.w3.org/2000/svg" xmlns:xlink="http://www.w3.org/1999/xlink" viewBox="0 0 32.98 21.12"><defs><style>.cls-1{fill:url(#linear-gradient);}.cls-2{fill:url(#linear-gradient-2);}.cls-3{fill:url(#linear-gradient-3);}</style><linearGradient id="linear-gradient" x1="12.95" y1="13.75" x2="32.98" y2="13.75" gradientUnits="userSpaceOnUse"><stop offset="0" stop-color="#209ad6"/><stop offset="1" stop-color="#0077af"/></linearGradient><linearGradient id="linear-gradient-2" x1="7" y1="8.25" x2="25.12" y2="8.25" xlink:href="#linear-gradient"/><linearGradient id="linear-gradient-3" x1="0" y1="14.37" x2="20.38" y2="14.37" xlink:href="#linear-gradient"/></defs><title>자산 1</title><g id="레이어_2" data-name="레이어 2"><g id="logo"><path class="cls-1" d="M26.19,7.53H16.76a2,2,0,1,0,0,1.72h9.43a5.08,5.08,0,0,1,0,10.16h-3a.86.86,0,0,0,0,1.71h3a6.8,6.8,0,0,0,0-13.59Z"/><path class="cls-2" d="M9,16.5a2,2,0,0,0,.88-3.79V6.49a7.4,7.4,0,0,1,13.6-.57A.86.86,0,1,0,25,5.17a9.12,9.12,0,0,0-16.81.88.93.93,0,0,0-.05.29v6.34A2,2,0,0,0,9,16.5Z"/><path class="cls-3" d="M18.38,12.5a2,2,0,0,0-2,2,2,2,0,0,0,1.18,1.83v3.08H6.79A5.08,5.08,0,0,1,5.92,9.32a.86.86,0,0,0-.3-1.69A6.8,6.8,0,0,0,6.79,21.12H18.41a.85.85,0,0,0,.85-.86v-4a2,2,0,0,0-.88-3.8Z"/></g></g></svg>