<svg xmlns="http://www.w3.org/2000/svg" viewBox="0 0 222.64 104.96"><defs><style>.cls-1{fill:#fff;}</style></defs><title>자산 1</title><g id="레이어_2" data-name="레이어 2"><g id="레이어_2-2" data-name="레이어 2"><path class="cls-1" d="M4.1,75.43v6.35h6.09V75.43h4.1V93.6H0V75.43Zm0,14.82h6.09V85.14H4.1Zm18.79,10.84H18.75V74.43h4.14Z"/><path class="cls-1" d="M51.2,91.32H47.07V87.48H40.76a7.48,7.48,0,0,1-2.46,1.68,8.12,8.12,0,0,1-3.18.6,8.28,8.28,0,0,1-3.06-.56,7,7,0,0,1-2.4-1.53,6.83,6.83,0,0,1-1.58-2.32,8,8,0,0,1,0-5.94,6.86,6.86,0,0,1,1.58-2.35,7.25,7.25,0,0,1,2.4-1.53A8.28,8.28,0,0,1,35.12,75a7.9,7.9,0,0,1,3.31.67A7.43,7.43,0,0,1,41,77.45h6.12v-3H51.2ZM38.77,82.37a3.79,3.79,0,0,0-1-2.78,3.77,3.77,0,0,0-5.24,0,3.83,3.83,0,0,0-1,2.78,3.87,3.87,0,0,0,1,2.77,3.74,3.74,0,0,0,5.24,0,3.83,3.83,0,0,0,1-2.77M50.84,98.19a6.09,6.09,0,0,1-.61,2.74,6.67,6.67,0,0,1-1.68,2.13,8,8,0,0,1-2.5,1.4,9.92,9.92,0,0,1-6.22,0,8.09,8.09,0,0,1-2.52-1.4,6.4,6.4,0,0,1-1.68-2.13,6.22,6.22,0,0,1-.6-2.74,6.23,6.23,0,0,1,2.28-4.9,7.67,7.67,0,0,1,2.52-1.38,10.11,10.11,0,0,1,6.22,0,7.57,7.57,0,0,1,2.5,1.38,6.53,6.53,0,0,1,1.68,2.15,6.16,6.16,0,0,1,.61,2.75m-3.9,0a2.69,2.69,0,0,0-.31-1.3,3.07,3.07,0,0,0-.86-1,4.12,4.12,0,0,0-1.29-.65A5.17,5.17,0,0,0,42.94,95a5.22,5.22,0,0,0-1.57.23,4.07,4.07,0,0,0-1.26.65,3.1,3.1,0,0,0-.87,1,2.88,2.88,0,0,0,0,2.6,3.1,3.1,0,0,0,.87,1,4.07,4.07,0,0,0,1.26.65,5.22,5.22,0,0,0,1.57.23,5.17,5.17,0,0,0,1.54-.23,4.12,4.12,0,0,0,1.29-.65,3.07,3.07,0,0,0,.86-1,2.69,2.69,0,0,0,.31-1.3m-4.2-15.82a7,7,0,0,1-.2,1.73h4.53V80.84H42.58a7.66,7.66,0,0,1,.16,1.53"/><path class="cls-1" d="M76.6,93.07c-1.22.31-5.5,1.16-7,1.38a42.8,42.8,0,0,1-4.67.39H57.06V83.54H66.8V79.11H57V75.76H70.9V86.89H61.17v4.53h3.35A38.56,38.56,0,0,0,69,91.11c1.39-.19,5.66-1,6.94-1.32Zm3.25,8H75.71V74.43h4.14Z"/><rect class="cls-1" x="86.5" y="74.79" width="4.16" height="24.41"/><polyline class="cls-1" points="106.23 78.59 104.5 78.59 104.5 99.2 100.34 99.2 100.34 78.59 93.21 78.59 93.21 75.24 106.23 75.24"/><polyline class="cls-1" points="98.62 78.59 100.35 78.59 100.35 99.2 104.51 99.2 104.51 78.59 111.64 78.59 111.64 75.24 98.62 75.24"/><path class="cls-1" d="M123.81,79.08v1.43a17.87,17.87,0,0,1-.1,1.94,11.45,11.45,0,0,1-.36,1.87l7.58,7.16-2.7,2.67L121.76,88a15,15,0,0,1-1.4,1.94c-.55.64-1.11,1.25-1.7,1.84s-1.17,1.13-1.75,1.63a19,19,0,0,1-1.66,1.27l-2.57-3c.47-.32,1-.71,1.54-1.17a20.36,20.36,0,0,0,1.63-1.48,17,17,0,0,0,1.48-1.69,15.41,15.41,0,0,0,1.17-1.77,11.66,11.66,0,0,0,1.24-5.48V79.08H114V75.73h15.65v3.35Zm13.54,22h-4.14V74.43h4.14Z"/><path class="cls-1" d="M148.22,95.23v-4.3h-7V87.48h5.83a66,66,0,0,0,13-1.11l.65,3.36a57.79,57.79,0,0,1-8.36,1.07v4.43Zm8.9-17.29a5.74,5.74,0,0,0-1.57-1.85A7.18,7.18,0,0,0,153.29,75a9.16,9.16,0,0,0-2.66-.39A9,9,0,0,0,148,75a7.12,7.12,0,0,0-2.27,1.14,5.89,5.89,0,0,0-1.58,1.85,5.76,5.76,0,0,0,0,5.08,5.93,5.93,0,0,0,1.58,1.86A7.1,7.1,0,0,0,148,86a8.73,8.73,0,0,0,2.65.4,8.84,8.84,0,0,0,2.66-.4,7.16,7.16,0,0,0,2.26-1.13A5.77,5.77,0,0,0,157.12,83a5.59,5.59,0,0,0,0-5.08m-3.53,3.65a2.81,2.81,0,0,1-.76.78,3.27,3.27,0,0,1-1.06.47,4.41,4.41,0,0,1-2.28,0,3.27,3.27,0,0,1-1.06-.47,2.81,2.81,0,0,1-.76-.78,2,2,0,0,1-.3-1.11,2.1,2.1,0,0,1,.3-1.09,2.75,2.75,0,0,1,.76-.8,3.5,3.5,0,0,1,1.06-.47,4.41,4.41,0,0,1,2.28,0,3.5,3.5,0,0,1,1.06.47,2.75,2.75,0,0,1,.76.8,2,2,0,0,1,.3,1.09,2,2,0,0,1-.3,1.11m13.71,21.48c-1,.26-1.85.46-2.69.6a16.46,16.46,0,0,1-2.88.22h-13.8V96.53h4.13v4h9.67a17.77,17.77,0,0,0,2.78-.19c.82-.13,1.64-.3,2.46-.49ZM155.64,94.8h6.06v2.57h4.13V74.43H161.7v17h-6.06Z"/><path class="cls-1" d="M168.7,89.56a21.7,21.7,0,0,0,3-3,13.39,13.39,0,0,0,2-3.21,10.08,10.08,0,0,0,.62-2.46,22.53,22.53,0,0,0,.16-2.81V75.18h4.07V78.4c0,.69,0,1.39-.08,2.08a14.7,14.7,0,0,1-.31,2.08l6,6.58-2.67,2.54-4.82-5.34a18.9,18.9,0,0,1-2.38,3.22,24.53,24.53,0,0,1-2.92,2.8Zm27.7,13.51c-1,.26-1.85.46-2.69.6a16.38,16.38,0,0,1-2.88.22H177.48V93.47h4.14v7.06h9.21a18,18,0,0,0,2.79-.19c.81-.13,1.63-.3,2.45-.49Zm-7.26-8.33h-4V83.61H181V80.22h4.07V74.43h4Zm2-20.31h4V95.78h-4Z"/><path class="cls-1" d="M212,86.05c-1.39.11-2.7.18-3.94.21s-2.47,0-3.71,0H204v4.23h1.89a34.82,34.82,0,0,0,4.41-.28,39.68,39.68,0,0,0,4.28-.76l.69,3.25A37.26,37.26,0,0,1,205.87,94h-6V75.76h12.86v3.35H204V83h.39c1.15,0,2.36,0,3.62,0s2.6-.08,4-.19Zm10.62,15H218.5V86h-4.62V82.63h4.62v-8.2h4.14Z"/><path class="cls-1" d="M138.52,21.12H112.07a5.63,5.63,0,1,0,0,4.81h26.45a14.25,14.25,0,0,1,0,28.5H130.2a2.4,2.4,0,1,0,0,4.8h8.32a19.06,19.06,0,0,0,0-38.11Z"/><path class="cls-1" d="M90.32,46.29a5.62,5.62,0,0,0,2.5-10.65V18.21A20.76,20.76,0,0,1,131,16.59a2.41,2.41,0,0,0,4.34-2.08A25.57,25.57,0,0,0,88.15,17a2.46,2.46,0,0,0-.14.81V35.55a5.62,5.62,0,0,0,2.31,10.74Z"/><path class="cls-1" d="M116.6,35.05a5.62,5.62,0,0,0-2.31,10.74v8.64H84.12a14.25,14.25,0,0,1-2.46-28.29,2.4,2.4,0,1,0-.82-4.73,19.05,19.05,0,0,0,3.28,37.82h32.57a2.4,2.4,0,0,0,2.41-2.4V45.7a5.62,5.62,0,0,0-2.5-10.65Z"/></g></g></svg>